<svg width="86" height="42" viewBox="0 0 86 42" fill="none" xmlns="http://www.w3.org/2000/svg">
<rect width="86" height="42" rx="5" fill="#F4F4F4"/>
<path d="M52.3294 32.6359C50.5202 34.4301 48.5448 34.1468 46.6434 33.2969C44.6311 32.4281 42.785 32.3904 40.662 33.2969C38.0036 34.4679 36.6006 34.1279 35.0129 32.6359C26.0039 23.136 27.3331 8.66891 37.5605 8.14008C40.0528 8.27229 41.7881 9.53768 43.2465 9.651C45.4249 9.19773 47.511 7.89456 49.8371 8.06454C52.6247 8.29118 54.7293 9.42437 56.1139 11.4641C50.354 14.9959 51.7201 22.7582 57 24.9302C55.9477 27.7632 54.5816 30.5773 52.3109 32.6548L52.3294 32.6359ZM43.0619 8.02676C42.785 3.81507 46.1264 0.339957 49.9663 0C50.5017 4.87272 45.6465 8.49893 43.0619 8.02676Z" fill="black"/>
</svg>
