<svg width="27" height="28" viewBox="0 0 27 28" fill="none" xmlns="http://www.w3.org/2000/svg">
<path d="M9.27092 0.756345C5.91634 1.90539 3.0553 4.4194 1.4667 7.5889C0.911455 8.68396 0.510447 9.84842 0.271385 11.0514C-0.337838 14.0436 0.0863047 17.2285 1.4667 19.9584C2.36125 21.7398 3.6491 23.3207 5.20686 24.5546C6.67979 25.7268 8.39179 26.5905 10.2117 27.0763C12.5021 27.6933 14.9467 27.6778 17.2602 27.1534C19.3501 26.6753 21.3243 25.6728 22.8975 24.223C24.5632 22.6884 25.7508 20.6756 26.3831 18.5086C27.0695 16.1412 27.162 13.6194 26.7302 11.198C22.4116 11.198 18.0931 11.198 13.7668 11.198C13.7668 12.9871 13.7668 14.7839 13.7668 16.573C16.2654 16.573 18.7717 16.573 21.2703 16.573C20.9773 18.2927 19.9593 19.8582 18.5095 20.8299C17.5995 21.4391 16.5585 21.8401 15.4788 22.0252C14.3915 22.2103 13.2733 22.2334 12.1936 22.0175C11.0909 21.8015 10.0421 21.3388 9.1244 20.6911C7.65918 19.6654 6.54098 18.1539 5.97032 16.465C5.38423 14.7453 5.37652 12.8251 5.97032 11.1054C6.37904 9.89469 7.06538 8.76879 7.96765 7.85881C9.07813 6.71748 10.5202 5.90775 12.078 5.57615C13.4121 5.29082 14.8156 5.3448 16.1189 5.73809C17.2294 6.07741 18.2473 6.67892 19.0879 7.48093C19.9362 6.64036 20.7768 5.79208 21.625 4.9515C22.0646 4.49651 22.535 4.06466 22.9669 3.59424C21.6867 2.40665 20.1752 1.4504 18.5327 0.848885C15.5868 -0.253886 12.2476 -0.277021 9.27092 0.756345Z" fill="white"/>
<path d="M9.27112 0.756258C12.2478 -0.277107 15.587 -0.253972 18.5483 0.841087C20.1909 1.4426 21.6946 2.39885 22.9825 3.58645C22.5506 4.04915 22.0879 4.48871 21.6407 4.9437C20.7924 5.78428 19.9518 6.63256 19.1035 7.47313C18.2629 6.67112 17.245 6.0619 16.1345 5.73029C14.8312 5.337 13.4277 5.28302 12.0936 5.56835C10.5358 5.89995 9.09375 6.71739 7.98327 7.85101C7.081 8.76099 6.39466 9.88689 5.98594 11.0976C4.48217 9.93316 2.97839 8.76099 1.47461 7.59652C3.0555 4.41931 5.91654 1.9053 9.27112 0.756258Z" fill="#E94435"/>
<path d="M0.271385 11.0514C0.510447 9.84839 0.919167 8.68393 1.4667 7.58887C2.97047 8.75333 4.47425 9.92551 5.97803 11.09C5.38423 12.8097 5.39194 14.7299 5.97803 16.4496C4.47425 17.6141 2.97047 18.7862 1.4667 19.9507C0.0863047 17.2362 -0.337838 14.0435 0.271385 11.0514Z" fill="#F8BB15"/>
<path d="M13.7747 11.1904C18.0932 11.1904 22.4118 11.1904 26.738 11.1904C27.1699 13.6119 27.0773 16.1336 26.391 18.5011C25.7586 20.6681 24.571 22.6885 22.9053 24.2155C21.4478 23.0818 19.9826 21.9482 18.5328 20.8146C19.9826 19.8506 21.0005 18.2775 21.2936 16.5578C18.795 16.5578 16.2887 16.5578 13.7901 16.5578C13.767 14.7764 13.7747 12.9873 13.7747 11.1904Z" fill="#547DBE"/>
<path d="M1.4668 19.9581C2.97058 18.7937 4.47435 17.6215 5.97813 16.457C6.5488 18.1536 7.66699 19.6574 9.13221 20.683C10.0499 21.3308 11.0987 21.7858 12.2015 22.0094C13.2811 22.2254 14.407 22.2022 15.4866 22.0172C16.5663 21.8321 17.6074 21.4311 18.5173 20.8218C19.9748 21.9555 21.4401 23.0891 22.8899 24.2227C21.3167 25.6802 19.3425 26.675 17.2526 27.1531C14.9468 27.6775 12.5022 27.693 10.2041 27.076C8.38418 26.5902 6.67218 25.7265 5.19925 24.5543C3.6492 23.3127 2.36135 21.7318 1.4668 19.9581Z" fill="#34A751"/>
</svg>
